<svg width="122" height="122" viewBox="0 14.67 121.655 121.655" fill="none" xmlns="http://www.w3.org/2000/svg">
<circle cx="60.8275" cy="75.4998" r="60.8275" fill="#84FE0C"/>
<path fill-rule="evenodd" clip-rule="evenodd" d="M96.6122 88.3423C92.537 99.6615 83.1687 108.867 70.6677 112.216C62.2149 114.481 53.6639 113.712 46.1714 110.575C47.5612 110.413 48.9622 110.161 50.3389 109.792C55.2624 108.473 59.7081 105.707 62.8708 103.341C64.4646 102.149 65.761 101.036 66.6619 100.219C67.1128 99.8098 67.4661 99.4735 67.7093 99.2365C67.831 99.118 67.9252 99.0242 67.9906 98.9586C68.0232 98.9257 68.0487 98.8999 68.0667 98.8815L68.0882 98.8595L68.0947 98.8528L68.097 98.8505L68.0977 98.8498L68.0995 98.848L68.1115 98.8356C68.1232 98.8237 68.1421 98.8045 68.1681 98.7784C68.2201 98.7261 68.3003 98.6463 68.4073 98.5421C68.6212 98.3337 68.9416 98.0284 69.3564 97.652C70.187 96.8985 71.3905 95.8653 72.8704 94.7582C75.8551 92.5253 79.8518 90.0764 84.1088 88.9357C88.3122 87.8095 92.9334 87.9146 96.6122 88.3423Z" fill="#09090B"/>
<path fill-rule="evenodd" clip-rule="evenodd" d="M97.7328 84.6504C93.8108 84.1826 88.0475 83.9448 83.1241 85.264C78.2007 86.5832 73.7549 89.3484 70.5922 91.7145C68.9984 92.9069 67.7021 94.0195 66.8011 94.8368C66.3502 95.246 65.997 95.5824 65.7537 95.8193C65.632 95.9378 65.5378 96.0316 65.4724 96.0972C65.4398 96.1301 65.4143 96.1559 65.3963 96.1743L65.3748 96.1963L65.3683 96.203L65.3661 96.2053L65.3654 96.206L65.3636 96.2078L65.3515 96.2202C65.3473 96.2245 65.3421 96.2297 65.336 96.2359C65.3252 96.2469 65.3115 96.2607 65.2949 96.2774C65.2429 96.3297 65.1627 96.4095 65.0557 96.5137C64.8418 96.7221 64.5214 97.0274 64.1066 97.4038C63.276 98.1573 62.0725 99.1905 60.5926 100.298C57.608 102.531 53.6112 104.979 49.3542 106.12C46.0975 106.993 42.59 107.126 39.4643 106.943C32.1767 101.997 26.564 94.5096 24.1056 85.3346C21.6472 76.1596 22.7641 66.8689 26.6025 58.9419C29.2178 57.2204 32.3222 55.5822 35.5788 54.7096C39.8358 53.5689 44.5215 53.6914 48.2228 54.1328C50.058 54.3517 51.6168 54.6447 52.7129 54.8819C53.2603 55.0005 53.6904 55.1047 53.9799 55.1782C54.1246 55.2149 54.234 55.244 54.3052 55.2632C54.3408 55.2729 54.3668 55.28 54.3828 55.2845L54.3994 55.2892L54.4015 55.2897L54.4029 55.2901L54.4059 55.291L54.4149 55.2936L54.4445 55.3019C54.456 55.3051 54.4697 55.3088 54.4855 55.3132C54.5038 55.3182 54.525 55.324 54.549 55.3305C54.6384 55.3547 54.767 55.3888 54.9316 55.4306C55.2607 55.5141 55.7348 55.6289 56.3299 55.7577C57.5188 56.0151 59.1978 56.3305 61.1742 56.5662C65.0963 57.034 70.329 57.2058 75.2524 55.8866C80.1758 54.5674 85.048 51.4797 88.2108 49.1135C92.5383 53.5973 95.8221 59.21 97.5491 65.6555C99.2762 72.101 99.2387 78.6036 97.7328 84.6504Z" fill="#09090B"/>
<path fill-rule="evenodd" clip-rule="evenodd" d="M55.4461 51.6335L55.4448 51.6331L55.4417 51.6322L55.4327 51.6296L55.4031 51.6214C55.3783 51.6144 55.3433 51.6048 55.2986 51.5927C55.2092 51.5685 55.0807 51.5345 54.9161 51.4926C54.5869 51.4091 54.1128 51.2944 53.5177 51.1655C52.3288 50.9081 50.6498 50.5928 48.6734 50.357C44.7513 49.8893 39.5186 49.7174 34.5952 51.0366C33.2184 51.4056 31.879 51.8875 30.5945 52.4422C35.5149 45.9796 42.5354 41.0374 50.9882 38.7725C63.4892 35.4229 76.205 38.7107 85.3938 46.4758C82.4217 48.6857 78.4722 51.0873 74.2689 52.2136C70.0118 53.3543 65.3261 53.2319 61.6249 52.7904C59.7897 52.5715 58.2308 52.2786 57.1347 52.0413C56.5874 51.9228 56.1572 51.8185 55.8677 51.745C55.723 51.7083 55.6136 51.6792 55.5425 51.66L55.5026 51.6491L55.4648 51.6387L55.4482 51.634L55.4461 51.6335Z" fill="#09090B"/>
</svg>
