<svg width="539" height="151" viewBox="0 0 539 151" fill="none" xmlns="http://www.w3.org/2000/svg">
<circle cx="60.8275" cy="75.4998" r="60.8275" fill="#84FE0C"/>
<path fill-rule="evenodd" clip-rule="evenodd" d="M96.6122 88.3423C92.537 99.6615 83.1687 108.867 70.6677 112.216C62.2149 114.481 53.6639 113.712 46.1714 110.575C47.5612 110.413 48.9622 110.161 50.3389 109.792C55.2624 108.473 59.7081 105.707 62.8708 103.341C64.4646 102.149 65.761 101.036 66.6619 100.219C67.1128 99.8098 67.4661 99.4735 67.7093 99.2365C67.831 99.118 67.9252 99.0242 67.9906 98.9586C68.0232 98.9257 68.0487 98.8999 68.0667 98.8815L68.0882 98.8595L68.0947 98.8528L68.097 98.8505L68.0977 98.8498L68.0995 98.848L68.1115 98.8356C68.1232 98.8237 68.1421 98.8045 68.1681 98.7784C68.2201 98.7261 68.3003 98.6463 68.4073 98.5421C68.6212 98.3337 68.9416 98.0284 69.3564 97.652C70.187 96.8985 71.3905 95.8653 72.8704 94.7582C75.8551 92.5253 79.8518 90.0764 84.1088 88.9357C88.3122 87.8095 92.9334 87.9146 96.6122 88.3423Z" fill="#09090B"/>
<path fill-rule="evenodd" clip-rule="evenodd" d="M97.7328 84.6504C93.8108 84.1826 88.0475 83.9448 83.1241 85.264C78.2007 86.5832 73.7549 89.3484 70.5922 91.7145C68.9984 92.9069 67.7021 94.0195 66.8011 94.8368C66.3502 95.246 65.997 95.5824 65.7537 95.8193C65.632 95.9378 65.5378 96.0316 65.4724 96.0972C65.4398 96.1301 65.4143 96.1559 65.3963 96.1743L65.3748 96.1963L65.3683 96.203L65.3661 96.2053L65.3654 96.206L65.3636 96.2078L65.3515 96.2202C65.3473 96.2245 65.3421 96.2297 65.336 96.2359C65.3252 96.2469 65.3115 96.2607 65.2949 96.2774C65.2429 96.3297 65.1627 96.4095 65.0557 96.5137C64.8418 96.7221 64.5214 97.0274 64.1066 97.4038C63.276 98.1573 62.0725 99.1905 60.5926 100.298C57.608 102.531 53.6112 104.979 49.3542 106.12C46.0975 106.993 42.59 107.126 39.4643 106.943C32.1767 101.997 26.564 94.5096 24.1056 85.3346C21.6472 76.1596 22.7641 66.8689 26.6025 58.9419C29.2178 57.2204 32.3222 55.5822 35.5788 54.7096C39.8358 53.5689 44.5215 53.6914 48.2228 54.1328C50.058 54.3517 51.6168 54.6447 52.7129 54.8819C53.2603 55.0005 53.6904 55.1047 53.9799 55.1782C54.1246 55.2149 54.234 55.244 54.3052 55.2632C54.3408 55.2729 54.3668 55.28 54.3828 55.2845L54.3994 55.2892L54.4015 55.2897L54.4029 55.2901L54.4059 55.291L54.4149 55.2936L54.4445 55.3019C54.456 55.3051 54.4697 55.3088 54.4855 55.3132C54.5038 55.3182 54.525 55.324 54.549 55.3305C54.6384 55.3547 54.767 55.3888 54.9316 55.4306C55.2607 55.5141 55.7348 55.6289 56.3299 55.7577C57.5188 56.0151 59.1978 56.3305 61.1742 56.5662C65.0963 57.034 70.329 57.2058 75.2524 55.8866C80.1758 54.5674 85.048 51.4797 88.2108 49.1135C92.5383 53.5973 95.8221 59.21 97.5491 65.6555C99.2762 72.101 99.2387 78.6036 97.7328 84.6504Z" fill="#09090B"/>
<path fill-rule="evenodd" clip-rule="evenodd" d="M55.4461 51.6335L55.4448 51.6331L55.4417 51.6322L55.4327 51.6296L55.4031 51.6214C55.3783 51.6144 55.3433 51.6048 55.2986 51.5927C55.2092 51.5685 55.0807 51.5345 54.9161 51.4926C54.5869 51.4091 54.1128 51.2944 53.5177 51.1655C52.3288 50.9081 50.6498 50.5928 48.6734 50.357C44.7513 49.8893 39.5186 49.7174 34.5952 51.0366C33.2184 51.4056 31.879 51.8875 30.5945 52.4422C35.5149 45.9796 42.5354 41.0374 50.9882 38.7725C63.4892 35.4229 76.205 38.7107 85.3938 46.4758C82.4217 48.6857 78.4722 51.0873 74.2689 52.2136C70.0118 53.3543 65.3261 53.2319 61.6249 52.7904C59.7897 52.5715 58.2308 52.2786 57.1347 52.0413C56.5874 51.9228 56.1572 51.8185 55.8677 51.745C55.723 51.7083 55.6136 51.6792 55.5425 51.66L55.5026 51.6491L55.4648 51.6387L55.4482 51.634L55.4461 51.6335Z" fill="#09090B"/>
<path d="M187.174 114C181.287 114 176.569 112.566 173.022 109.698C169.475 106.83 167.701 101.735 167.701 94.4138V69.9593H158.078V57.8453H167.701L169.399 42.7876H182.193V57.8453H197.363V69.9593H182.193V94.527C182.193 97.2441 182.759 99.1311 183.891 100.188C185.098 101.169 187.136 101.66 190.004 101.66H197.024V114H187.174ZM235.653 115.359C229.992 115.359 224.973 114.151 220.595 111.736C216.218 109.32 212.784 105.924 210.293 101.546C207.802 97.1687 206.557 92.1117 206.557 86.3755C206.557 80.5638 207.764 75.3936 210.18 70.865C212.67 66.3364 216.067 62.8267 220.369 60.336C224.747 57.7698 229.879 56.4867 235.766 56.4867C241.276 56.4867 246.144 57.6943 250.371 60.1096C254.598 62.5248 257.881 65.8458 260.221 70.0725C262.636 74.2237 263.844 78.8655 263.844 83.998C263.844 84.8282 263.806 85.6962 263.73 86.6019C263.73 87.5076 263.693 88.4511 263.617 89.4323H220.935C221.237 93.81 222.747 97.2441 225.464 99.7349C228.256 102.226 231.615 103.471 235.54 103.471C238.483 103.471 240.936 102.829 242.899 101.546C244.937 100.188 246.446 98.4518 247.427 96.3384H262.145C261.089 99.8858 259.315 103.131 256.824 106.075C254.409 108.943 251.39 111.207 247.767 112.868C244.22 114.528 240.182 115.359 235.653 115.359ZM235.766 68.2611C232.219 68.2611 229.087 69.28 226.369 71.3179C223.652 73.2803 221.916 76.2993 221.162 80.3751H249.126C248.899 76.6767 247.541 73.7331 245.05 71.5443C242.559 69.3555 239.465 68.2611 235.766 68.2611ZM276.032 114V57.8453H288.825L289.957 67.3553C291.693 64.0344 294.184 61.3927 297.43 59.4303C300.751 57.4679 304.638 56.4867 309.091 56.4867C316.035 56.4867 321.431 58.6755 325.281 63.0532C329.13 67.4308 331.055 73.8463 331.055 82.2997V114H316.563V83.6583C316.563 78.8278 315.582 75.1294 313.619 72.5632C311.657 69.997 308.6 68.7139 304.449 68.7139C300.373 68.7139 297.015 70.148 294.373 73.0161C291.807 75.8842 290.524 79.8845 290.524 85.0169V114H276.032ZM352.724 49.1277C350.082 49.1277 347.893 48.3352 346.157 46.7502C344.497 45.1652 343.667 43.165 343.667 40.7498C343.667 38.3345 344.497 36.3721 346.157 34.8626C347.893 33.2776 350.082 32.485 352.724 32.485C355.365 32.485 357.517 33.2776 359.177 34.8626C360.913 36.3721 361.781 38.3345 361.781 40.7498C361.781 43.165 360.913 45.1652 359.177 46.7502C357.517 48.3352 355.365 49.1277 352.724 49.1277ZM345.478 114V57.8453H359.97V114H345.478ZM398.304 115.359C393.323 115.359 388.945 114.566 385.171 112.981C381.398 111.321 378.379 109.056 376.114 106.188C373.85 103.32 372.491 99.9991 372.038 96.2252H386.643C387.096 98.414 388.304 100.301 390.266 101.886C392.304 103.396 394.908 104.15 398.078 104.15C401.248 104.15 403.55 103.509 404.984 102.226C406.494 100.943 407.248 99.4707 407.248 97.8102C407.248 95.395 406.192 93.7722 404.078 92.942C401.965 92.0362 399.021 91.1683 395.248 90.338C392.832 89.8097 390.379 89.1681 387.889 88.4134C385.398 87.6586 383.096 86.7151 380.982 85.583C378.945 84.3754 377.284 82.8658 376.001 81.0544C374.718 79.1675 374.076 76.8654 374.076 74.1482C374.076 69.1668 376.039 64.9778 379.964 61.5814C383.964 58.1849 389.549 56.4867 396.719 56.4867C403.361 56.4867 408.645 58.0339 412.57 61.1285C416.57 64.223 418.947 68.4875 419.702 73.9218H406.003C405.173 69.7706 402.041 67.695 396.606 67.695C393.889 67.695 391.776 68.2233 390.266 69.28C388.832 70.3367 388.115 71.6575 388.115 73.2425C388.115 74.903 389.209 76.2239 391.398 77.2051C393.587 78.1863 396.493 79.092 400.116 79.9222C404.041 80.8279 407.626 81.8469 410.871 82.979C414.192 84.0357 416.834 85.6585 418.796 87.8473C420.759 89.9606 421.74 93.0174 421.74 97.0177C421.815 100.49 420.91 103.622 419.023 106.415C417.136 109.207 414.419 111.396 410.871 112.981C407.324 114.566 403.135 115.359 398.304 115.359ZM457.829 114C451.942 114 447.225 112.566 443.677 109.698C440.13 106.83 438.356 101.735 438.356 94.4138V69.9593H428.733V57.8453H438.356L440.054 42.7876H452.848V57.8453H468.018V69.9593H452.848V94.527C452.848 97.2441 453.414 99.1311 454.546 100.188C455.753 101.169 457.791 101.66 460.659 101.66H467.679V114H457.829ZM499.82 115.359C494.99 115.359 491.027 114.604 487.933 113.094C484.838 111.509 482.536 109.434 481.027 106.867C479.517 104.301 478.762 101.471 478.762 98.3763C478.762 93.1684 480.8 88.9417 484.876 85.6962C488.952 82.4507 495.065 80.8279 503.217 80.8279H517.482V79.4694C517.482 75.62 516.388 72.7897 514.199 70.9782C512.01 69.1668 509.293 68.2611 506.047 68.2611C503.104 68.2611 500.537 68.9781 498.349 70.4121C496.16 71.7707 494.801 73.8086 494.273 76.5258H480.121C480.498 72.45 481.857 68.9026 484.197 65.8835C486.612 62.8645 489.707 60.5624 493.48 58.9774C497.254 57.3169 501.481 56.4867 506.16 56.4867C514.161 56.4867 520.463 58.4868 525.067 62.4871C529.671 66.4873 531.974 72.1481 531.974 79.4694V114H519.633L518.274 104.943C516.614 107.962 514.274 110.453 511.255 112.415C508.312 114.377 504.5 115.359 499.82 115.359ZM503.104 104.037C507.255 104.037 510.463 102.678 512.727 99.9613C515.067 97.2441 516.539 93.8854 517.142 89.8852H504.802C500.953 89.8852 498.198 90.6022 496.537 92.0362C494.877 93.3948 494.046 95.0931 494.046 97.1309C494.046 99.3198 494.877 101.018 496.537 102.226C498.198 103.433 500.386 104.037 503.104 104.037Z" fill="#84FE0C"/>
</svg>
